<svg id="Layer_1" enable-background="new 0 0 512 512" height="512" viewBox="0 0 512 512" width="512" xmlns="http://www.w3.org/2000/svg"><g><g clip-rule="evenodd" fill-rule="evenodd"><path d="m46 50h139.991 140.019 139.991l9.999-9.999v-30h-440v30z" fill="#b6bccf"/><path d="m46 50h139.991v100.004h-139.991z" fill="#e8eaf0"/><path d="m185.991 50v100.003h140.019v-100.003zm47.509 50.002c0-12.426 10.074-22.5 22.5-22.5s22.5 10.074 22.5 22.5-10.074 22.5-22.5 22.5-22.5-10.074-22.5-22.5z" fill="#cfd3df"/><circle cx="256" cy="100.002" fill="#e8eaf0" r="22.5"/><path d="m326.01 50h139.991v100.004h-139.991z" fill="#e8eaf0"/><path d="m466.001 150.004h-139.991-140.019-139.991-10v30l10 10h420.001l9.999-10v-30z" fill="#b6bccf"/><path d="m466.001 190.004h-420.001v40.001h99.99 40.001 140.019 40.001 99.99z" fill="#e8eaf0"/><path d="m366.011 230.005h99.989v171.993h-99.989z" fill="#e8eaf0"/><path d="m326.01 230.005h40.001v171.993h-40.001z" fill="#cfd3df"/><path d="m366.011 401.998h-40.001-10v30l9.999 10h40.002 99.99l9.999-10v-30h-9.999z" fill="#b6bccf"/><path d="m366.011 441.998h99.99v60.002h-99.99z" fill="#e8eaf0"/><path d="m326.009 441.998h40.001v60.002h-40.001z" fill="#cfd3df"/><path d="m145.99 441.998h40.001v60.002h-40.001z" fill="#cfd3df"/><path d="m46 441.998h99.991v60.002h-99.991z" fill="#e8eaf0"/><path d="m46 441.998h99.99 40.001l10-10v-30h-10-40.001-99.99-10v30z" fill="#b6bccf"/><path d="m46 230.005h99.99v171.993h-99.99z" fill="#e8eaf0"/><path d="m145.99 230.005h40.001v171.993h-40.001z" fill="#cfd3df"/></g><g><path d="m502 492h-25.999v-45.86l7.07-7.071c1.875-1.875 2.929-4.419 2.929-7.071v-30c0-5.523-4.477-9.999-9.999-10v-197.853l7.07-7.071c1.875-1.875 2.929-4.419 2.929-7.071v-30c0-5.523-4.477-9.999-9.999-10 0 0 0 0 0-.001v-85.86l7.07-7.071c1.875-1.875 2.929-4.419 2.929-7.071v-30c0-5.523-4.478-10-10-10h-440c-5.522 0-10 4.477-10 10v30c0 2.652 1.054 5.196 2.929 7.071l7.071 7.072v85.86c-5.522 0-10 4.477-10 10v30c0 2.652 1.054 5.196 2.929 7.071l7.071 7.072v197.852c-5.522 0-10 4.477-10 10v30c0 2.652 1.054 5.196 2.929 7.071l7.071 7.072v45.859h-26c-5.522 0-10 4.477-10 10s4.478 10 10 10h492c5.522 0 10-4.477 10-10s-4.478-10-10-10zm-451.858-60.002-4.142-4.142v-15.858h139.991v15.858l-4.142 4.142zm105.847-191.993h20.002v151.993h-20.002zm-99.989-40.002h154.997c5.522 0 10-4.477 10-10s-4.478-10-10-10h-160.855l-4.142-4.141v-15.858h420v15.858l-4.142 4.142h-160.861c-5.522 0-10 4.477-10 10s4.478 10 10 10h155.004v20.002h-.001-400zm139.991-140.003h120.019v80.003h-120.019zm134.16 371.998-4.142-4.142v-15.858h139.991v15.858l-4.142 4.142zm5.859-191.993h20.002v151.993h-20.002zm40.002 151.993v-151.993h79.988.001v151.993zm79.989-251.994h-119.991v-80.004h119.991v80.004c0-.001 0-.001 0 0zm-300.011 311.994h20.001v40.001h-20.001zm40.001 40.001v-45.859l7.071-7.071c1.875-1.875 2.929-4.419 2.929-7.071v-30c0-5.523-4.478-10-10-10v-151.993h120.019v151.993c-5.522 0-10 4.477-10 10v30c0 2.652 1.054 5.196 2.929 7.071l7.071 7.071v45.859zm140.019 0v-40.001h20.001v40.001zm40.001 0v-40.001h79.99v40.001zm-330.011-471.999h420v15.858l-4.142 4.142h-411.716l-4.142-4.141zm10 120.003v-80.003h119.991v80.003zm0 100.002h79.989v151.993h-79.989zm0 251.994v-40.001h79.99v40.001z"/><path d="m256 132.502c17.921 0 32.5-14.58 32.5-32.5s-14.579-32.5-32.5-32.5-32.5 14.58-32.5 32.5 14.579 32.5 32.5 32.5zm0-45c6.893 0 12.5 5.607 12.5 12.5s-5.607 12.5-12.5 12.5-12.5-5.607-12.5-12.5 5.607-12.5 12.5-12.5z"/><path d="m256 180.003h-.007c-5.522 0-9.996 4.477-9.996 10s4.48 10 10.003 10 10-4.477 10-10-4.478-10-10-10z"/></g></g></svg>